<svg class="animated" id="freepik_stories-cocktail-shaker" xmlns="http://www.w3.org/2000/svg" viewBox="0 0 500 500" version="1.1" xmlns:xlink="http://www.w3.org/1999/xlink" xmlns:svgjs="http://svgjs.com/svgjs"><style>svg#freepik_stories-cocktail-shaker:not(.animated) .animable {opacity: 0;}svg#freepik_stories-cocktail-shaker.animated #freepik--background-simple--inject-57 {animation: 1s 1 forwards cubic-bezier(.36,-0.01,.5,1.38) lightSpeedRight;animation-delay: 0s;}svg#freepik_stories-cocktail-shaker.animated #freepik--Shaker--inject-57 {animation: 3s Infinite  linear wind;animation-delay: 0s;}            @keyframes lightSpeedRight {              from {                transform: translate3d(50%, 0, 0) skewX(-20deg);                opacity: 0;              }              60% {                transform: skewX(10deg);                opacity: 1;              }              80% {                transform: skewX(-2deg);              }              to {                opacity: 1;                transform: translate3d(0, 0, 0);              }            }                    @keyframes wind {                0% {                    transform: rotate( 0deg );                }                25% {                    transform: rotate( 1deg );                }                75% {                    transform: rotate( -1deg );                }            }        </style><g id="freepik--background-simple--inject-57" class="animable animator-active" style="transform-origin: 247.048px 252.547px;"><path d="M455.59,331.57c-20.14,40.62-55.86,82.72-99.33,90.82-65.67,12.23-80.58,66.85-192.61,46.7A210.74,210.74,0,0,1,116,454.77a180.08,180.08,0,0,1-21.8-11.4c-62-38-87.75-106.93-81.64-174.66,8-89.07,70-123.79,109.91-143.64s96.8-109.76,207.1-90.9a204.46,204.46,0,0,1,49,14.68c35.82,16,70.48,45.55,87.75,84.27q1.95,4.37,3.65,8.88C492.14,200.77,483.05,276.21,455.59,331.57Z" style="fill: rgb(0, 255, 136); transform-origin: 247.048px 252.547px;" id="elzzjvdcw088b" class="animable"></path><g id="elxnpxnymo38"><path d="M455.59,331.57c-20.14,40.62-55.86,82.72-99.33,90.82-65.67,12.23-80.58,66.85-192.61,46.7A210.74,210.74,0,0,1,116,454.77a180.08,180.08,0,0,1-21.8-11.4c-62-38-87.75-106.93-81.64-174.66,8-89.07,70-123.79,109.91-143.64s96.8-109.76,207.1-90.9a204.46,204.46,0,0,1,49,14.68c35.82,16,70.48,45.55,87.75,84.27q1.95,4.37,3.65,8.88C492.14,200.77,483.05,276.21,455.59,331.57Z" style="fill: rgb(255, 255, 255); opacity: 0.8; transform-origin: 247.048px 252.547px;" class="animable"></path></g></g><g id="freepik--Floor--inject-57" class="animable" style="transform-origin: 249.965px 417.255px;"><path d="M332.35,402.76C399,408.22,451.11,420.13,472.42,435" style="fill: none; stroke: rgb(38, 50, 56); stroke-linecap: round; stroke-linejoin: round; transform-origin: 402.385px 418.88px;" id="el6b1lbo5ve7" class="animable"></path><path d="M315.23,401.52q7.77.5,15.32,1.09" style="fill: none; stroke: rgb(156, 156, 156); stroke-linecap: round; stroke-linejoin: round; transform-origin: 322.89px 402.065px;" id="elt04ctycqak" class="animable"></path><path d="M27.51,435C57,414.43,145.44,399.51,250,399.51c21.8,0,42.9.65,62.91,1.86" style="fill: none; stroke: rgb(38, 50, 56); stroke-linecap: round; stroke-linejoin: round; transform-origin: 170.21px 417.255px;" id="elsjunvf7sm7c" class="animable"></path></g><g id="freepik--Limes--inject-57" class="animable" style="transform-origin: 229.675px 219.108px;"><g id="elj5o10lmp629"><g style="opacity: 0.3; transform-origin: 280.79px 80.53px;" class="animable"><circle cx="280.79" cy="80.53" r="41.1" style="fill: none; stroke: rgb(0, 0, 0); stroke-linecap: round; stroke-linejoin: round; stroke-width: 0.75px; transform-origin: 280.79px 80.53px;" id="elmn820g6frx" class="animable"></circle><circle cx="280.79" cy="80.53" r="33.86" style="fill: none; stroke: rgb(0, 0, 0); stroke-linecap: round; stroke-linejoin: round; stroke-width: 0.75px; transform-origin: 280.79px 80.53px;" id="ely326su1tto" class="animable"></circle><path d="M289.73,54.22c.49-.88-2-3.87-7.14-4-6-.16-7.91,1.14-8.64,3.2,0,0,6.05,23.77,6.77,24.36S289.25,55.1,289.73,54.22Z" style="fill: none; stroke: rgb(0, 0, 0); stroke-linecap: round; stroke-linejoin: round; stroke-width: 0.75px; transform-origin: 281.87px 63.9989px;" id="elpic753n4t5d" class="animable"></path><path d="M279.23,78.48c.93,0-6.43-23.36-6.56-24.36s-3.88-2-8.13,1c-5,3.43-5.73,5.58-5.11,7.67C259.43,62.75,278.3,78.43,279.23,78.48Z" style="fill: none; stroke: rgb(0, 0, 0); stroke-linecap: round; stroke-linejoin: round; stroke-width: 0.75px; transform-origin: 269.277px 65.8px;" id="elmnod2sme6qb" class="animable"></path><path d="M253.17,78.83s24.48,1.6,25.26,1.1-18.94-15.12-19.62-15.86-4.29.69-6,5.56C250.78,75.33,251.44,77.51,253.17,78.83Z" style="fill: none; stroke: rgb(0, 0, 0); stroke-linecap: round; stroke-linejoin: round; stroke-width: 0.75px; transform-origin: 265.004px 71.9567px;" id="elfowomzt5wx" class="animable"></path><path d="M283.47,79.3c-.34.87,24.21,1.1,25.19,1.29s3.07-3.08,1.6-8c-1.72-5.8-3.53-7.17-5.71-7.23C304.55,65.33,283.8,78.43,283.47,79.3Z" style="fill: none; stroke: rgb(0, 0, 0); stroke-linecap: round; stroke-linejoin: round; stroke-width: 0.75px; transform-origin: 297.117px 72.9789px;" id="elcr1tx8r7t3d" class="animable"></path><path d="M303.48,64.33c.91-.43.68-4.3-3.42-7.44-4.8-3.68-7.08-3.72-8.87-2.49,0,0-9.09,22.79-8.85,23.69S302.57,64.76,303.48,64.33Z" style="fill: none; stroke: rgb(0, 0, 0); stroke-linecap: round; stroke-linejoin: round; stroke-width: 0.75px; transform-origin: 293.126px 65.9034px;" id="el1rbdzvcrvez" class="animable"></path><path d="M280.59,83.21c-.76.54-8.28,23.9-8.28,23.9.6,2.09,2.38,3.51,8.42,3.73,5.16.19,7.81-2.63,7.38-3.54S281.35,82.67,280.59,83.21Z" style="fill: none; stroke: rgb(0, 0, 0); stroke-linecap: round; stroke-linejoin: round; stroke-width: 0.75px; transform-origin: 280.233px 97.025px;" id="elxc4olz8oe9" class="animable"></path><path d="M279.15,82.42c-.94,0-20.75,14.46-20.75,14.46-.75,2.05-.14,4.24,4.62,8,4.06,3.18,7.86,2.45,8.05,1.46S280.08,82.43,279.15,82.42Z" style="fill: none; stroke: rgb(0, 0, 0); stroke-linecap: round; stroke-linejoin: round; stroke-width: 0.75px; transform-origin: 268.675px 94.803px;" id="el6uxppu2wzrf" class="animable"></path><path d="M278.44,80.93c-.75-.55-25.28-.49-25.28-.49-1.81,1.21-2.61,3.34-.95,9.16,1.41,5,4.92,6.61,5.65,5.92S279.19,81.49,278.44,80.93Z" style="fill: none; stroke: rgb(0, 0, 0); stroke-linecap: round; stroke-linejoin: round; stroke-width: 0.75px; transform-origin: 264.882px 88.0549px;" id="elvsfaorzzeae" class="animable"></path><path d="M308.65,82.17c-1,.12-25.5-1.19-25.22-.3s20.16,15.26,20.16,15.26c2.18.08,4.08-1.17,6.16-6.85C311.52,85.43,309.65,82,308.65,82.17Z" style="fill: none; stroke: rgb(0, 0, 0); stroke-linecap: round; stroke-linejoin: round; stroke-width: 0.75px; transform-origin: 296.955px 89.3458px;" id="el21pgwuicfba" class="animable"></path><path d="M302.46,98.07c-.88-.49-19.93-15.95-20.23-15.07s7.34,24.2,7.34,24.2c1.72,1.35,4,1.45,9-1.92C302.87,102.4,303.34,98.55,302.46,98.07Z" style="fill: none; stroke: rgb(0, 0, 0); stroke-linecap: round; stroke-linejoin: round; stroke-width: 0.75px; transform-origin: 292.525px 95.5209px;" id="elq80ik6e07d" class="animable"></path></g></g><g id="el6w40kqyrvyq"><g style="opacity: 0.3; transform-origin: 409.91px 353.79px;" class="animable"><g id="ele5aj8gfa96r"><circle cx="409.91" cy="353.79" r="33.3" style="fill: none; stroke: rgb(0, 0, 0); stroke-linecap: round; stroke-linejoin: round; stroke-width: 0.75px; transform-origin: 409.91px 353.79px; transform: rotate(-27.84deg);" class="animable"></circle></g><g id="el6sj1bb96r4w"><circle cx="409.91" cy="353.79" r="27.43" style="fill: none; stroke: rgb(0, 0, 0); stroke-linecap: round; stroke-linejoin: round; stroke-width: 0.75px; transform-origin: 409.91px 353.79px; transform: rotate(-66.45deg);" class="animable"></circle></g><path d="M422.52,335.14c.57-.58-.72-3.44-4.72-4.65-4.7-1.41-6.43-.79-7.44.66,0,0-.35,19.87.09,20.48S422,335.73,422.52,335.14Z" style="fill: none; stroke: rgb(0, 0, 0); stroke-linecap: round; stroke-linejoin: round; stroke-width: 0.75px; transform-origin: 416.438px 340.671px;" id="elrm0ca940yi" class="animable"></path><path d="M409.13,351.86c.72.24,0-19.63.08-20.44s-2.61-2.36-6.56-1c-4.63,1.61-5.67,3.14-5.63,4.9C397,335.34,408.41,351.62,409.13,351.86Z" style="fill: none; stroke: rgb(0, 0, 0); stroke-linecap: round; stroke-linejoin: round; stroke-width: 0.75px; transform-origin: 403.236px 340.872px;" id="elwxmjvy38cf8" class="animable"></path><path d="M388.69,346.57s18.79,6.48,19.51,6.25S396.63,337,396.25,336.24s-3.5-.38-5.89,3.06C387.57,343.33,387.62,345.17,388.69,346.57Z" style="fill: none; stroke: rgb(0, 0, 0); stroke-linecap: round; stroke-linejoin: round; stroke-width: 0.75px; transform-origin: 398.121px 344.369px;" id="elw3apaehjuuh" class="animable"></path><path d="M412.27,353.41c-.45.6,18.68,6,19.42,6.38s3.05-1.75,3-5.93c-.11-4.9-1.23-6.36-2.92-6.87C431.73,347,412.72,352.8,412.27,353.41Z" style="fill: none; stroke: rgb(0, 0, 0); stroke-linecap: round; stroke-linejoin: round; stroke-width: 0.75px; transform-origin: 423.476px 353.412px;" id="elfx6mxtatp0h" class="animable"></path><path d="M431.11,346c.8-.14,1.44-3.21-1.09-6.54-3-3.91-4.73-4.42-6.4-3.84,0,0-12,15.87-12,16.62S430.31,346.12,431.11,346Z" style="fill: none; stroke: rgb(0, 0, 0); stroke-linecap: round; stroke-linejoin: round; stroke-width: 0.75px; transform-origin: 421.72px 343.859px;" id="el5e391phkalf" class="animable"></path><path d="M409.19,355.85c-.71.26-11.58,16.9-11.58,16.9,0,1.77,1.11,3.26,5.78,4.72,4,1.25,6.67-.39,6.53-1.19S409.9,355.59,409.19,355.85Z" style="fill: none; stroke: rgb(0, 0, 0); stroke-linecap: round; stroke-linejoin: round; stroke-width: 0.75px; transform-origin: 403.768px 366.886px;" id="el5cl9ej81nc9" class="animable"></path><path d="M408.23,354.92c-.73-.2-19.3,6.88-19.3,6.88-1,1.43-1,3.28,1.9,7.21,2.5,3.36,5.62,3.6,6,2.87S409,355.13,408.23,354.92Z" style="fill: none; stroke: rgb(0, 0, 0); stroke-linecap: round; stroke-linejoin: round; stroke-width: 0.75px; transform-origin: 398.297px 363.567px;" id="elxac487490oq" class="animable"></path><path d="M408,353.61c-.46-.6-19.65-5.79-19.65-5.79-1.67.57-2.75,2.06-2.7,7,0,4.19,2.43,6.22,3.15,5.84S408.46,354.2,408,353.61Z" style="fill: none; stroke: rgb(0, 0, 0); stroke-linecap: round; stroke-linejoin: round; stroke-width: 0.75px; transform-origin: 396.828px 354.263px;" id="elm1ax279tn9i" class="animable"></path><path d="M431.34,361c-.8-.12-19.68-6.38-19.65-5.62s12.5,16.23,12.5,16.23c1.68.53,3.43-.05,6.27-4C432.89,364.19,432.15,361.14,431.34,361Z" style="fill: none; stroke: rgb(0, 0, 0); stroke-linecap: round; stroke-linejoin: round; stroke-width: 0.75px; transform-origin: 421.903px 363.546px;" id="el9xa8amexu5i" class="animable"></path><path d="M423.11,372.13c-.59-.57-12.18-16.72-12.6-16.09s.57,20.47.57,20.47c1.05,1.42,2.81,2,7.45.42C422.5,375.6,423.69,372.7,423.11,372.13Z" style="fill: none; stroke: rgb(0, 0, 0); stroke-linecap: round; stroke-linejoin: round; stroke-width: 0.75px; transform-origin: 416.827px 366.949px;" id="el0lct6u78tmgr" class="animable"></path></g></g><g id="elbte3fa8npbj"><g style="opacity: 0.3; transform-origin: 73.19px 297.11px;" class="animable"><g id="elyok7sda2w58"><circle cx="73.19" cy="297.11" r="57.26" style="fill: none; stroke: rgb(0, 0, 0); stroke-linecap: round; stroke-linejoin: round; stroke-width: 0.75px; transform-origin: 73.19px 297.11px; transform: rotate(-13.1deg);" class="animable"></circle></g><circle cx="73.19" cy="297.11" r="47.18" style="fill: none; stroke: rgb(0, 0, 0); stroke-linecap: round; stroke-linejoin: round; stroke-width: 0.75px; transform-origin: 73.19px 297.11px;" id="elg213opyoa8l" class="animable"></circle><path d="M85.65,260.46c.67-1.23-2.75-5.4-10-5.58-8.42-.22-11,1.6-12,4.46,0,0,8.42,33.13,9.43,33.94S85,261.68,85.65,260.46Z" style="fill: none; stroke: rgb(0, 0, 0); stroke-linecap: round; stroke-linejoin: round; stroke-width: 0.75px; transform-origin: 74.6912px 274.078px;" id="el13v5dhpn6alo" class="animable"></path><path d="M71,294.26c1.3.07-9-32.55-9.14-33.94s-5.4-2.74-11.33,1.34c-6.94,4.77-8,7.77-7.11,10.68C43.44,272.34,69.72,294.19,71,294.26Z" style="fill: none; stroke: rgb(0, 0, 0); stroke-linecap: round; stroke-linejoin: round; stroke-width: 0.75px; transform-origin: 57.1321px 276.599px;" id="elsqamej0z2ot" class="animable"></path><path d="M34.71,294.75s34.11,2.23,35.2,1.52-26.39-21.06-27.35-22.08-6,.95-8.37,7.74C31.37,289.87,32.3,292.9,34.71,294.75Z" style="fill: none; stroke: rgb(0, 0, 0); stroke-linecap: round; stroke-linejoin: round; stroke-width: 0.75px; transform-origin: 51.1967px 285.174px;" id="ell3g5zbu7fjq" class="animable"></path><path d="M76.92,295.4c-.46,1.21,33.73,1.53,35.1,1.79s4.28-4.29,2.23-11.19c-2.39-8.08-4.92-10-8-10.06C106.29,275.94,77.39,294.18,76.92,295.4Z" style="fill: none; stroke: rgb(0, 0, 0); stroke-linecap: round; stroke-linejoin: round; stroke-width: 0.75px; transform-origin: 95.9373px 286.57px;" id="elpwrn8a19dw" class="animable"></path><path d="M104.81,274.54c1.26-.6.93-6-4.78-10.36-6.68-5.13-9.85-5.19-12.35-3.47,0,0-12.66,31.75-12.33,33S103.54,275.13,104.81,274.54Z" style="fill: none; stroke: rgb(0, 0, 0); stroke-linecap: round; stroke-linejoin: round; stroke-width: 0.75px; transform-origin: 90.3782px 276.732px;" id="elsddjjzvpqt" class="animable"></path><path d="M72.92,300.85c-1.06.76-11.54,33.29-11.54,33.29.83,2.92,3.31,4.89,11.73,5.21,7.19.26,10.87-3.68,10.28-5S74,300.1,72.92,300.85Z" style="fill: none; stroke: rgb(0, 0, 0); stroke-linecap: round; stroke-linejoin: round; stroke-width: 0.75px; transform-origin: 72.4157px 320.1px;" id="elx6jyfncnr" class="animable"></path><path d="M70.9,299.75c-1.3,0-28.9,20.15-28.9,20.15-1,2.85-.2,5.9,6.43,11.1,5.66,4.44,11,3.42,11.22,2.05S72.2,299.76,70.9,299.75Z" style="fill: none; stroke: rgb(0, 0, 0); stroke-linecap: round; stroke-linejoin: round; stroke-width: 0.75px; transform-origin: 56.3201px 316.986px;" id="el1i2uoie7hrph" class="animable"></path><path d="M69.92,297.67c-1-.77-35.22-.69-35.22-.69-2.53,1.7-3.64,4.66-1.33,12.77,2,6.92,6.86,9.21,7.88,8.25S71,298.45,69.92,297.67Z" style="fill: none; stroke: rgb(0, 0, 0); stroke-linecap: round; stroke-linejoin: round; stroke-width: 0.75px; transform-origin: 51.029px 307.593px;" id="elgfxy4qo3q5i" class="animable"></path><path d="M112,299.39c-1.39.18-35.53-1.65-35.14-.41S105,320.24,105,320.24c3,.12,5.68-1.63,8.58-9.54C116,303.94,113.4,299.22,112,299.39Z" style="fill: none; stroke: rgb(0, 0, 0); stroke-linecap: round; stroke-linejoin: round; stroke-width: 0.75px; transform-origin: 95.7137px 309.396px;" id="el9x8fluu7h3m" class="animable"></path><path d="M103.39,321.55c-1.23-.68-27.78-22.22-28.19-21s10.23,33.71,10.23,33.71c2.38,1.88,5.55,2,12.55-2.68C104,327.58,104.61,322.22,103.39,321.55Z" style="fill: none; stroke: rgb(0, 0, 0); stroke-linecap: round; stroke-linejoin: round; stroke-width: 0.75px; transform-origin: 89.5481px 317.988px;" id="el023ob84ed8dd" class="animable"></path></g></g></g><g id="freepik--Olives--inject-57" class="animable" style="transform-origin: 258.407px 190.857px;"><g id="el9hiptak6w7o"><path d="M482.29,297.21l-20.54-19a14.27,14.27,0,0,0,2-3.07A14.51,14.51,0,0,0,457,255.76a14.36,14.36,0,0,0-5.94-1.41,14,14,0,0,0-8.3-13.17,14.51,14.51,0,0,0-17.12,3.46l-17-16.08a1.6,1.6,0,0,0-2.28.06,1.63,1.63,0,0,0,.06,2.3l17.35,16.41c-.11.21-.24.41-.34.63a14.48,14.48,0,0,0,12.82,20.77,14.46,14.46,0,0,0,23.15,11.68l20.71,19.18a1.76,1.76,0,0,0,.4.27,1.62,1.62,0,0,0,1.8-2.65Zm-51.76-30.64a13.68,13.68,0,0,1,11.87-24.66,13.19,13.19,0,0,1,7.83,12.44,14.43,14.43,0,0,0-14,13.57A13.57,13.57,0,0,1,430.53,266.57Zm14.24,14.58a13.68,13.68,0,1,1,18.26-6.4,13.24,13.24,0,0,1-1.88,2.88l-5-4.64a1.62,1.62,0,1,0-2.21,2.38l4.85,4.49A13.69,13.69,0,0,1,444.77,281.15Z" style="opacity: 0.3; transform-origin: 444.372px 264.065px;" class="animable"></path></g><g id="elwq386iu2zc"><path d="M116.67,86.86,94,91a12.19,12.19,0,0,0-1-2.85,11.93,11.93,0,0,0-20-1.87,11.52,11.52,0,0,0-12.76-1,12,12,0,0,0-6.18,13l-19,3.27A1.32,1.32,0,0,0,34,103.05a1.34,1.34,0,0,0,1.54,1.1l19.38-3.34c.08.18.15.36.24.54a11.94,11.94,0,0,0,16.09,5.08,11.73,11.73,0,0,0,3.92-3.28A11.91,11.91,0,0,0,94.3,93.67l22.85-4.18a1.55,1.55,0,0,0,.38-.13,1.34,1.34,0,0,0-.86-2.5Zm-45.73,19a11.26,11.26,0,0,1-10.39-20,10.87,10.87,0,0,1,12.06,1,11.87,11.87,0,0,0,2,15.91A11.14,11.14,0,0,1,70.94,105.84Zm16.63-2.18a11.26,11.26,0,1,1,4.8-15.19,11.06,11.06,0,0,1,1,2.66l-5.53,1a1.34,1.34,0,1,0,.48,2.63l5.35-1A11.28,11.28,0,0,1,87.57,103.66Z" style="opacity: 0.3; transform-origin: 76.1084px 94.734px;" class="animable"></path></g></g><g id="freepik--Glass--inject-57" class="animable" style="transform-origin: 340.363px 265.273px;"><g id="eljiatzz60ntc"><circle cx="361.76" cy="164.63" r="41.1" style="fill: rgb(255, 255, 255); stroke: rgb(38, 50, 56); stroke-miterlimit: 10; transform-origin: 361.76px 164.63px; transform: rotate(-45deg);" class="animable"></circle></g><g id="elak1djm1v72n"><circle cx="361.76" cy="164.63" r="33.86" style="fill: none; stroke: rgb(38, 50, 56); stroke-miterlimit: 10; transform-origin: 361.76px 164.63px; transform: rotate(-45deg);" class="animable"></circle></g><path d="M371.38,136.3c.52-1-2.13-4.17-7.7-4.31-6.51-.17-8.52,1.23-9.3,3.45,0,0,6.51,25.6,7.29,26.24S370.85,137.25,371.38,136.3Z" style="fill: rgb(0, 255, 136); transform-origin: 362.912px 146.834px;" id="elzqmsk2zek8h" class="animable"></path><path d="M360.06,162.43c1,0-6.93-25.16-7.06-26.23s-4.17-2.12-8.76,1c-5.37,3.69-6.16,6-5.5,8.26C338.74,145.49,359.06,162.38,360.06,162.43Z" style="fill: rgb(0, 255, 136); transform-origin: 349.345px 148.779px;" id="elv68b2thhrqc" class="animable"></path><path d="M332,162.81s26.36,1.72,27.21,1.17-20.4-16.28-21.14-17.07-4.62.74-6.48,6C329.42,159,330.14,161.38,332,162.81Z" style="fill: rgb(0, 255, 136); transform-origin: 344.745px 155.402px;" id="elumkafzhpsu" class="animable"></path><path d="M364.63,163.31c-.36.94,26.07,1.18,27.13,1.38s3.31-3.31,1.73-8.64c-1.86-6.25-3.81-7.72-6.16-7.78C387.33,148.27,365,162.37,364.63,163.31Z" style="fill: rgb(0, 255, 136); transform-origin: 379.331px 156.484px;" id="elrf6vk6ykl29" class="animable"></path><path d="M386.18,147.19c1-.47.73-4.63-3.69-8-5.17-4-7.62-4-9.55-2.68,0,0-9.78,24.54-9.52,25.51S385.2,147.65,386.18,147.19Z" style="fill: rgb(0, 255, 136); transform-origin: 375.037px 148.893px;" id="elmj12unpzc7f" class="animable"></path><path d="M361.53,167.53c-.82.58-8.92,25.73-8.92,25.73.64,2.25,2.56,3.78,9.07,4,5.56.21,8.41-2.84,7.95-3.82S362.35,166.94,361.53,167.53Z" style="fill: rgb(0, 255, 136); transform-origin: 361.144px 182.395px;" id="elsyl8x4nu0el" class="animable"></path><path d="M360,166.67c-1,0-22.34,15.58-22.34,15.58-.8,2.2-.15,4.56,5,8.58,4.38,3.44,8.48,2.64,8.68,1.58S361,166.68,360,166.67Z" style="fill: rgb(0, 255, 136); transform-origin: 348.724px 179.995px;" id="ellk9avbidhnj" class="animable"></path><path d="M359.21,165.07c-.8-.6-27.22-.53-27.22-.53-1.95,1.3-2.81,3.6-1,9.86,1.52,5.35,5.3,7.12,6.09,6.38S360,165.67,359.21,165.07Z" style="fill: rgb(0, 255, 136); transform-origin: 344.614px 172.739px;" id="elotudxogj5q" class="animable"></path><path d="M391.75,166.4c-1.07.13-27.46-1.28-27.16-.32s21.71,16.43,21.71,16.43c2.35.09,4.39-1.26,6.63-7.37C394.84,169.91,392.83,166.26,391.75,166.4Z" style="fill: rgb(0, 255, 136); transform-origin: 379.155px 174.129px;" id="el9hr112sjfrf" class="animable"></path><path d="M385.09,183.52c-.95-.52-21.48-17.17-21.8-16.22s7.91,26.06,7.91,26.06c1.85,1.45,4.29,1.56,9.7-2.08C385.52,188.18,386,184.05,385.09,183.52Z" style="fill: rgb(0, 255, 136); transform-origin: 374.375px 180.782px;" id="elnff7x6reu3" class="animable"></path><path d="M383.86,102.84a8,8,0,0,0-9.39-3.32c-6.35,1.93-9.39,9.39-8.28,14.36s4.14,10.49,12.7,12.7,16.29-5,16.56-11.87-2.2-9.94-4.41-10.77S383.86,102.84,383.86,102.84Z" style="fill: rgb(38, 50, 56); stroke: rgb(38, 50, 56); stroke-linecap: round; stroke-linejoin: round; transform-origin: 380.718px 113.035px;" id="el29zkfooemrr" class="animable"></path><path d="M383.86,102.84s6.73-14.31,12.81-18.47a100.57,100.57,0,0,1,12-7s6.08-1.93,6.38,1-1.63,2.53-3.26,2.23a8,8,0,0,0-4.9.15c-2.52.74-8,2.37-11,5.64s-9.5,16.17-9.5,16.17Z" style="fill: rgb(38, 50, 56); stroke: rgb(38, 50, 56); stroke-linecap: round; stroke-linejoin: round; transform-origin: 399.471px 89.7931px;" id="elhnl77tb76i7" class="animable"></path><path d="M359.31,179c0,1.63-21.93,3-49,3s-49-1.32-49-3,21.93-3,49-3S359.31,177.31,359.31,179Z" style="fill: none; stroke: rgb(38, 50, 56); stroke-linecap: round; stroke-linejoin: round; transform-origin: 310.31px 179px;" id="elio8c7ae0rl" class="animable"></path><path d="M326.51,420.21c2.38,5.14,5.23,9.72,5.23,11.92,0,3.42-5.32,8-16.51,8s-22.93-6-18.74-11.91a82,82,0,0,0,5.21-8c-19.2,2-33.28,8.63-33.28,16.47,0,9.45,20.45,17.11,45.67,17.11s45.66-7.66,45.66-17.11C359.75,428.84,345.69,422.24,326.51,420.21Z" style="fill: rgb(255, 255, 255); stroke: rgb(38, 50, 56); stroke-linecap: round; stroke-linejoin: round; transform-origin: 314.085px 437.005px;" id="elghvt07h7gt7" class="animable"></path><path d="M355.27,273c-1.87-12.75-3.73-66.86,4-94.07,0,1.63-21.93,3-49,3-25.84,0-47-1.21-48.83-2.74,1.28,2,10.88,17.57,12.91,50.63,2.18,35.45-8.7,62.51-11.5,76.81s-4.36,27.68,7.15,42,26.43,20.22,31.41,34.21,3.11,30.48,1.86,33.9-3.6,7-6.84,11.51c-4.19,5.89,7.54,11.91,18.74,11.91s16.51-4.56,16.51-8-6.95-12.64-8.19-20.73-.31-32,9.95-41,28-15.86,31.72-38.56S357.13,285.77,355.27,273Z" style="fill: none; stroke: rgb(38, 50, 56); stroke-linecap: round; stroke-linejoin: round; transform-origin: 313.362px 309.545px;" id="el4tyc8ljn8vp" class="animable"></path><path d="M352.56,271.64c-1.22-8.74-2.43-37.29-.56-62.78-3.07,1-19.05,1.84-38.33,1.84-21.46,0-38.85-1-38.85-2.21,0-.07.06-.13.17-.2h-.56a169.5,169.5,0,0,1,2.51,21c2,34.7-8.15,61.18-10.77,75.18s-4.07,27.09,6.69,41.09,24.73,19.78,29.38,33.47c.11.33.22.66.32,1a22.66,22.66,0,0,1,22.46.28c1.51-5.42,3.8-10.34,7.18-13.45,9.6-8.83,26.18-15.52,29.67-37.74S354.31,284.12,352.56,271.64Z" style="fill: rgb(0, 255, 136); stroke: rgb(38, 50, 56); stroke-linecap: round; stroke-linejoin: round; transform-origin: 313.42px 294.3px;" id="elkcvp883r798" class="animable"></path><path d="M276.23,334.07A32.89,32.89,0,0,0,283,344.85" style="fill: none; stroke: rgb(38, 50, 56); stroke-linecap: round; stroke-linejoin: round; transform-origin: 279.615px 339.46px;" id="el6ow51j3i9im" class="animable"></path><path d="M283,222.33s3.57,29.07-4,60.37c-4.2,17.31-6.22,30.52-5.14,41.06" style="fill: none; stroke: rgb(38, 50, 56); stroke-linecap: round; stroke-linejoin: round; transform-origin: 278.707px 273.045px;" id="ellkhc8gq6rv" class="animable"></path><g id="eloxy85z99k7"><ellipse cx="348.54" cy="313.7" rx="7.56" ry="12.18" style="fill: rgb(255, 255, 255); opacity: 0.62; transform-origin: 348.54px 313.7px;" class="animable"></ellipse></g><path d="M352.53,208.49c0,1.22-17.39,2.21-38.86,2.21s-38.85-1-38.85-2.21,17.39-2.2,38.85-2.2S352.53,207.28,352.53,208.49Z" style="fill: rgb(0, 255, 136); stroke: rgb(38, 50, 56); stroke-linecap: round; stroke-linejoin: round; transform-origin: 313.675px 208.495px;" id="ele98092vu9h5" class="animable"></path></g><g id="freepik--Shaker--inject-57" class="animable" style="transform-origin: 169.14px 257.666px;"><path d="M209.24,66.72c-4-3.75-32.58-3.78-39.64-3.73S134,63,130,66.72c0,0,6.58,13.45,7.16,24.9s.28,13.45.28,13.45h64.4s-.29-2,.28-13.45S209.24,66.72,209.24,66.72Z" style="fill: rgb(0, 255, 136); stroke: rgb(38, 50, 56); stroke-linecap: round; stroke-linejoin: round; transform-origin: 169.62px 84.0255px;" id="elv69k96hrwfq" class="animable"></path><path d="M186,68.17c-1.65-3.25-13.45-3.27-16.37-3.23s-14.72,0-16.37,3.23c0,0,2.72,15.42,3,25.3s.12,11.6.12,11.6h26.6s-.12-1.72.12-11.6S186,68.17,186,68.17Z" style="fill: rgb(38, 50, 56); stroke: rgb(38, 50, 56); stroke-linecap: round; stroke-linejoin: round; transform-origin: 169.63px 85.0015px;" id="el8e58r9qc25n" class="animable"></path><path d="M105.67,196.7s-2.3,34.72,5.18,104.31,18.68,133.12,22.42,138.73S152,452.35,171.1,452.35s36.43-9.34,38.77-12.61,17.28-87.35,21.48-137.32,1.11-105.68,1.11-105.68v-3.38s-39.05,5.37-64.57,5-62.17-6.14-62.17-6.14Z" style="fill: rgb(0, 255, 136); stroke: rgb(38, 50, 56); stroke-linecap: round; stroke-linejoin: round; transform-origin: 169.446px 322.285px;" id="elu5mn4rr32z" class="animable"></path><path d="M107.31,189.31c.53.11,53.64,11.51,123.93,0a3.59,3.59,0,0,1,1.18,0V170.61c0-3.72-8.87-11.44-8.87-11.44s-.86-9.45-2.58-14.89-6.58-10-6.58-10-2.29-9.45-4.29-14-9.73-9.16-9.73-9.16v-6h-63v6s-7.72,4.58-9.73,9.16-4.29,14-4.29,14-4.87,4.58-6.58,10-2.58,14.89-2.58,14.89-8.87,7.72-8.87,11.44v18.8A3.7,3.7,0,0,1,107.31,189.31Z" style="fill: rgb(0, 255, 136); stroke: rgb(38, 50, 56); stroke-linecap: round; stroke-linejoin: round; transform-origin: 168.87px 149.785px;" id="elrqqvbso5ckh" class="animable"></path><path d="M168.85,156.17a142.75,142.75,0,0,1,26.3,3c-.05-1.77-.23-9.41.16-13.23a6.44,6.44,0,0,0-2.16-5.49,101.12,101.12,0,0,1-25.26,3.48A71.76,71.76,0,0,1,148.75,141a9.25,9.25,0,0,0-2.08,2.91c-.82,2-.33,10.69-.1,14.1A113.21,113.21,0,0,1,168.85,156.17Z" style="fill: rgb(38, 50, 56); stroke: rgb(38, 50, 56); stroke-linecap: round; stroke-linejoin: round; transform-origin: 170.778px 149.81px;" id="elpt38elrdrfn" class="animable"></path><path d="M169,129.38a96.72,96.72,0,0,1,26.12,4.21c-.06-3.09-.1-7.91.17-10.71a6.27,6.27,0,0,0-1.43-4.69,107.82,107.82,0,0,1-25.71,3.41,75,75,0,0,1-19.91-3,8.62,8.62,0,0,0-1.6,2.43c-.62,1.53-.45,7.11-.23,11.13A83.39,83.39,0,0,1,169,129.38Z" style="fill: rgb(38, 50, 56); stroke: rgb(38, 50, 56); stroke-linecap: round; stroke-linejoin: round; transform-origin: 170.767px 125.89px;" id="elfn8y50st56" class="animable"></path><path d="M146.55,199.57s5.64,183.56,13,238.67c0,0-.87,7.81,4.34,9.55s17.36,3,22.57-2.61,6.5-56.41,8.24-127.58-.43-119.33-.43-119.33Z" style="fill: rgb(38, 50, 56); stroke: rgb(38, 50, 56); stroke-linecap: round; stroke-linejoin: round; transform-origin: 170.963px 323.768px;" id="elpl4kblz51k8" class="animable"></path><path d="M110.13,170.46c-1.45,4-.54,17.88-.54,17.88" style="fill: none; stroke: rgb(38, 50, 56); stroke-linecap: round; stroke-linejoin: round; transform-origin: 109.719px 179.4px;" id="elggphbcao3ef" class="animable"></path><path d="M121.32,142.94c-2.16,5.26-4.55,15.15-2.7,16.14,2.34,1.26,11.38,2.35,8.31,3.25-1.54.45-5.38,1.49-9,2.91" style="fill: none; stroke: rgb(38, 50, 56); stroke-linecap: round; stroke-linejoin: round; transform-origin: 122.745px 154.09px;" id="elfma8fzwol9" class="animable"></path><path d="M142.64,105.07v6.23a4.32,4.32,0,0,1-2.27,3.81c-3.23,1.73-8.83,4.92-9.47,6.58a80.87,80.87,0,0,0-2,9.91,2.07,2.07,0,0,0,2,2.39c1.73.08,3.62.32,2.56,1.07a31.44,31.44,0,0,1-5.11,2.1" style="fill: none; stroke: rgb(38, 50, 56); stroke-linecap: round; stroke-linejoin: round; transform-origin: 135.495px 121.115px;" id="elgrfpy1tcrmn" class="animable"></path><path d="M229.48,170.46c1.45,4,.54,17.88.54,17.88" style="fill: none; stroke: rgb(38, 50, 56); stroke-linecap: round; stroke-linejoin: round; transform-origin: 229.891px 179.4px;" id="el77nwe40j86u" class="animable"></path><path d="M218.29,142.94c2.16,5.26,4.54,15.15,2.7,16.14-2.35,1.26-11.38,2.35-8.31,3.25,1.54.45,5.38,1.49,9,2.91" style="fill: none; stroke: rgb(38, 50, 56); stroke-linecap: round; stroke-linejoin: round; transform-origin: 216.865px 154.09px;" id="el407jv43xlnv" class="animable"></path><path d="M197,105.07v6.23a4.32,4.32,0,0,0,2.27,3.81c3.23,1.73,8.83,4.92,9.47,6.58a80.87,80.87,0,0,1,2,9.91,2.07,2.07,0,0,1-2,2.39c-1.73.08-3.62.32-2.55,1.07a31.26,31.26,0,0,0,5.1,2.1" style="fill: none; stroke: rgb(38, 50, 56); stroke-linecap: round; stroke-linejoin: round; transform-origin: 204.145px 121.115px;" id="el0sgnfresomy" class="animable"></path><g id="elklc0jcquugo"><path d="M135.26,135.65a74.93,74.93,0,0,0,32.63,8.29c18.26.19,39.64-7.55,36-7.74s-13.28-6.08-34.85-6.82C152.38,128.81,135.26,135.65,135.26,135.65Z" style="fill: rgb(255, 255, 255); opacity: 0.62; transform-origin: 169.779px 136.645px;" class="animable"></path></g><g id="el20ktlyhwq8h"><path d="M139.92,115.65a75.12,75.12,0,0,0,28.23,5.95c15.78.14,34.28-5.42,31.09-5.55s-11.48-4.37-30.14-4.9C154.73,110.74,139.92,115.65,139.92,115.65Z" style="fill: rgb(255, 255, 255); opacity: 0.62; transform-origin: 169.761px 116.364px;" class="animable"></path></g><g id="eli444fq8yw6r"><path d="M128.49,162.39a103.85,103.85,0,0,0,39,8.23c21.83.19,47.42-7.5,43-7.68s-15.88-6-41.69-6.77C149,155.6,128.49,162.39,128.49,162.39Z" style="fill: rgb(255, 255, 255); opacity: 0.62; transform-origin: 169.741px 163.38px;" class="animable"></path></g><path d="M146.67,193.52s-1-13,0-15.49a10.74,10.74,0,0,1,3.12-3.86,2,2,0,0,1,1.37-.44,345.32,345.32,0,0,0,39.82,0,2.8,2.8,0,0,1,2.05.7,6.46,6.46,0,0,1,2.28,5.6c-.44,4.35-.15,13.61-.15,13.61S162.44,195.25,146.67,193.52Z" style="fill: rgb(38, 50, 56); stroke: rgb(38, 50, 56); stroke-linecap: round; stroke-linejoin: round; transform-origin: 170.784px 184.022px;" id="elczmf3og2rpl" class="animable"></path><path d="M167.64,202c-37.36,0-61.6-5.22-62-5.3a3.78,3.78,0,0,1,1.64-7.39c.53.11,53.64,11.51,123.93,0a3.78,3.78,0,0,1,1.22,7.47A401.52,401.52,0,0,1,167.64,202Z" style="fill: rgb(0, 255, 136); stroke: rgb(38, 50, 56); stroke-linecap: round; stroke-linejoin: round; transform-origin: 169.14px 195.61px;" id="elebm0ffkoxvb" class="animable"></path><path d="M132.88,415.12q1.25,6.42,2.59,12.87" style="fill: none; stroke: rgb(38, 50, 56); stroke-linecap: round; stroke-linejoin: round; transform-origin: 134.175px 421.555px;" id="el04umj9rtc6vj" class="animable"></path><path d="M112.3,233.51c1.53,36.61,5.87,100.67,18.21,169" style="fill: none; stroke: rgb(38, 50, 56); stroke-linecap: round; stroke-linejoin: round; transform-origin: 121.405px 318.01px;" id="elnf6l99om67" class="animable"></path><path d="M111.47,201.89s0,6.18.32,17.14" style="fill: none; stroke: rgb(38, 50, 56); stroke-linecap: round; stroke-linejoin: round; transform-origin: 111.63px 210.46px;" id="el3cdsb0mttsx" class="animable"></path><path d="M211.17,415.49q-1.14,6.43-2.37,12.9" style="fill: none; stroke: rgb(38, 50, 56); stroke-linecap: round; stroke-linejoin: round; transform-origin: 209.985px 421.94px;" id="elyul9ixo1dz" class="animable"></path><path d="M228.61,233.55c-.9,36.62-4.13,100.75-15.29,169.25" style="fill: none; stroke: rgb(38, 50, 56); stroke-linecap: round; stroke-linejoin: round; transform-origin: 220.965px 318.175px;" id="elsadt15vlo9l" class="animable"></path><path d="M228.89,201.91s.11,6.18,0,17.14" style="fill: none; stroke: rgb(38, 50, 56); stroke-linecap: round; stroke-linejoin: round; transform-origin: 228.914px 210.48px;" id="el1lwwp2pt64j" class="animable"></path><path d="M140.82,86.31c.51,4,.91,8.84,1.1,14.78" style="fill: none; stroke: rgb(38, 50, 56); stroke-linecap: round; stroke-linejoin: round; transform-origin: 141.37px 93.7px;" id="el36dfy62ja2" class="animable"></path><path d="M134.84,68.59s2.9,1.22,5,11.74" style="fill: none; stroke: rgb(38, 50, 56); stroke-linecap: round; stroke-linejoin: round; transform-origin: 137.34px 74.46px;" id="elaiwbppdcpu7" class="animable"></path><path d="M197.06,92.71c-.15,2.4-.2,5-.11,7.74" style="fill: none; stroke: rgb(38, 50, 56); stroke-linecap: round; stroke-linejoin: round; transform-origin: 196.983px 96.58px;" id="el6d6fhgtn3uy" class="animable"></path><path d="M203.38,68.59s-4.58,6.88-6,20.64" style="fill: none; stroke: rgb(38, 50, 56); stroke-linecap: round; stroke-linejoin: round; transform-origin: 200.38px 78.91px;" id="elzhg47bfjk8" class="animable"></path></g><defs>     <filter id="active" height="200%">         <feMorphology in="SourceAlpha" result="DILATED" operator="dilate" radius="2"></feMorphology>                <feFlood flood-color="#32DFEC" flood-opacity="1" result="PINK"></feFlood>        <feComposite in="PINK" in2="DILATED" operator="in" result="OUTLINE"></feComposite>        <feMerge>            <feMergeNode in="OUTLINE"></feMergeNode>            <feMergeNode in="SourceGraphic"></feMergeNode>        </feMerge>    </filter>    <filter id="hover" height="200%">        <feMorphology in="SourceAlpha" result="DILATED" operator="dilate" radius="2"></feMorphology>                <feFlood flood-color="#ff0000" flood-opacity="0.5" result="PINK"></feFlood>        <feComposite in="PINK" in2="DILATED" operator="in" result="OUTLINE"></feComposite>        <feMerge>            <feMergeNode in="OUTLINE"></feMergeNode>            <feMergeNode in="SourceGraphic"></feMergeNode>        </feMerge>            <feColorMatrix type="matrix" values="0   0   0   0   0                0   1   0   0   0                0   0   0   0   0                0   0   0   1   0 "></feColorMatrix>    </filter></defs></svg>